<svg width="54" height="58" viewBox="0 0 54 58" fill="none" xmlns="http://www.w3.org/2000/svg">
<path d="M23.2749 14.7509C24.6633 11.527 29.2342 11.527 30.6226 14.7509L32.1424 18.2802C33.0111 20.2972 34.9123 21.6785 37.099 21.8814L40.9253 22.2362C44.4204 22.5604 45.8329 26.9076 43.1958 29.2242L40.3089 31.7603C38.659 33.2098 37.9328 35.4448 38.4157 37.5872L39.2605 41.3358C40.0323 44.76 36.3343 47.4468 33.3162 45.6546L30.0121 43.6927C28.1238 42.5715 25.7737 42.5715 23.8854 43.6927L20.5813 45.6546C17.5632 47.4468 13.8652 44.76 14.6369 41.3358L15.4818 37.5872C15.9647 35.4448 15.2385 33.2098 13.5885 31.7603L10.7017 29.2242C8.06461 26.9076 9.47711 22.5604 12.9722 22.2362L16.7984 21.8813C18.9852 21.6785 20.8864 20.2972 21.755 18.2802L23.2749 14.7509Z" fill="#464651" stroke="#464651" stroke-width="2"/>
<path d="M23.2749 11.0592C24.6633 7.83539 29.2342 7.83539 30.6226 11.0592L32.1424 14.5885C33.0111 16.6056 34.9123 17.9869 37.099 18.1897L40.9253 18.5446C44.4204 18.8688 45.8329 23.216 43.1958 25.5326L40.3089 28.0687C38.659 29.5181 37.9328 31.7532 38.4157 33.8956L39.2605 37.6442C40.0323 41.0684 36.3343 43.7551 33.3162 41.963L30.0121 40.0011C28.1238 38.8799 25.7737 38.8799 23.8854 40.0011L20.5813 41.963C17.5632 43.7551 13.8652 41.0684 14.6369 37.6442L15.4818 33.8956C15.9647 31.7532 15.2385 29.5181 13.5885 28.0687L10.7017 25.5326C8.06461 23.216 9.47711 18.8688 12.9722 18.5446L16.7984 18.1897C18.9852 17.9869 20.8864 16.6056 21.755 14.5885L23.2749 11.0592Z" fill="#F5DE7D" stroke="#464651" stroke-width="2"/>
</svg>
